<?xml version="1.0" encoding="utf-8"?>
<!-- Generator: Adobe Illustrator 25.4.1, SVG Export Plug-In . SVG Version: 6.00 Build 0)  -->
<svg version="1.1" id="Capa_1" xmlns="http://www.w3.org/2000/svg" xmlns:xlink="http://www.w3.org/1999/xlink" x="0px" y="0px"
	 viewBox="0 0 1080 1052" style="enable-background:new 0 0 1080 1052;" xml:space="preserve">
<style type="text/css">
	.st0{fill:#D72B1F;}
	.st1{fill:#0CB7F2;}
</style>
<g>
	<g>
		<g>
			<path d="M696.62,81.76v10.9c93.47,0,135.55,40.52,135.55,102.85c0,46.76-23.37,127.81-73.24,255.6l-157.4,402.07l-27.98-69
				l-70.57,177.1c-3.93,9.86-3.82,20.87,0.31,30.64l24.99,59.17h9.36l236.86-593.77c51.44-132.46,90.39-215.06,123.15-266.47
				c43.61-65.47,99.75-98.2,182.34-98.2v-10.9H696.62z M370.89,284.35c-51.43-126.24-24.93-191.69,99.74-191.69v-10.9H0v10.9
				c116.89,0,163.62,95.06,210.36,205.73l203.4,481.56l72.34-181.56c3.85-9.67,3.82-20.46-0.09-30.11L370.89,284.35z"/>
			<path class="st0" d="M540.4,732.3l-71.24,178.79l-21.25-50.31c-4.13-9.78-4.24-20.79-0.31-30.65l71.67-179.85l21.05,51.91
				C544.23,711.84,544.26,722.63,540.4,732.3z"/>
		</g>
		<path d="M601.41,506.73L631.94,583h-51.13c-4.76,0-8.01-4.81-6.24-9.23L601.41,506.73z"/>
		<path d="M601.56,726.55l-30.54-76.27h51.13c4.76,0,8.01,4.81,6.24,9.23L601.56,726.55z"/>
	</g>
	<path class="st1" d="M1080,0.9H33.63C15.06,0.9,0,15.96,0,34.53v0h1046.37C1064.94,34.53,1080,19.48,1080,0.9L1080,0.9z"/>
</g>
</svg>
